<svg width="25" height="25" viewBox="0 0 25 25" fill="none" xmlns="http://www.w3.org/2000/svg">
<path d="M15.5273 0C17.9995 0 19.9765 2.13754 20.0518 4.76172H22.7734C23.9923 4.76172 24.9443 5.8331 24.9443 7.10742V22.1543C24.9443 23.4286 23.9923 24.5 22.7734 24.5H2.1709C0.952059 24.5 2.98023e-08 23.4286 0 22.1543V7.10742C0 5.8331 0.952058 4.76172 2.1709 4.76172H4.71777C4.79298 2.13754 6.77003 0 9.24219 0H15.5273ZM2.1709 6.4043C1.84685 6.4043 1.54785 6.69859 1.54785 7.10742V22.1543C1.54785 22.5631 1.84685 22.8574 2.1709 22.8574H22.7734C23.0975 22.8574 23.3965 22.5631 23.3965 22.1543V7.10742C23.3965 6.69859 23.0975 6.4043 22.7734 6.4043H2.1709ZM19.8057 8.19043C21.0245 8.19049 21.9766 9.26185 21.9766 10.5361V18.7266C21.9764 20.0007 21.0243 21.0712 19.8057 21.0713H5.13867C3.92005 21.0712 2.96796 20.0006 2.96777 18.7266V10.5361C2.96777 9.26189 3.91994 8.19056 5.13867 8.19043H19.8057ZM5.13867 9.83301C4.81471 9.83314 4.51562 10.1274 4.51562 10.5361V18.7266C4.51581 19.1351 4.8148 19.4286 5.13867 19.4287H19.8057C20.1296 19.4286 20.4285 19.1352 20.4287 18.7266V10.5361C20.4287 10.1273 20.1297 9.83307 19.8057 9.83301H5.13867ZM9.24219 1.64258C7.66252 1.64258 6.33956 3.00674 6.26562 4.76172H7.34668C7.46161 3.60054 8.36583 2.66703 9.50391 2.66699H15.2656C16.4038 2.66699 17.3089 3.60049 17.4238 4.76172H18.5039C18.43 3.00675 17.107 1.64258 15.5273 1.64258H9.24219ZM9.50391 4.30957C9.25111 4.3096 9.01604 4.48904 8.92383 4.76172H15.8457C15.7535 4.48908 15.5184 4.30957 15.2656 4.30957H9.50391Z" fill="#252203"/>
</svg>
